<svg width="202" height="40" viewBox="0 0 202 40" fill="none" xmlns="http://www.w3.org/2000/svg">
<path d="M11.96 3.52H11.48C9.10667 3.52 7.25333 4.12 5.92 5.32C4.61333 6.49333 3.96 8.58667 3.96 11.6C3.96 12.5867 4.05333 13.28 4.24 13.68C4.42667 14.0533 4.52 14.2667 4.52 14.32C3.08 14.32 2 14.0267 1.28 13.44C0.586667 12.8267 0.24 11.8267 0.24 10.44C0.24 8.54667 0.706667 6.82667 1.64 5.28C2.57333 3.70667 4.05333 2.44 6.08 1.48C8.13333 0.519999 10.7333 0.0399995 13.88 0.0399995C15.64 0.0399995 17.5333 0.199999 19.56 0.519998C21.2667 0.813332 22.7867 0.96 24.12 0.96C25.8267 0.96 27.3733 0.679999 28.76 0.119998C28.7067 1.85333 28.2667 3.13333 27.44 3.96C26.6133 4.78667 25.3867 5.2 23.76 5.2C22.9067 5.2 22.0533 5.13333 21.2 5C20.3467 4.86667 19.1333 4.64 17.56 4.32L12.04 30H6.28L11.96 3.52ZM21.9778 10H27.7378L27.2178 12.48C28.1245 11.68 28.9378 11.0667 29.6578 10.64C30.4045 10.2133 31.2045 10 32.0578 10C32.9111 10 33.5778 10.2933 34.0578 10.88C34.5645 11.4667 34.8178 12.1733 34.8178 13C34.8178 13.7733 34.5645 14.4533 34.0578 15.04C33.5511 15.6267 32.8445 15.92 31.9378 15.92C31.3511 15.92 30.9511 15.7867 30.7378 15.52C30.5511 15.2267 30.4045 14.8133 30.2978 14.28C30.2178 13.9333 30.1378 13.68 30.0578 13.52C29.9778 13.36 29.8311 13.28 29.6178 13.28C29.0578 13.28 28.5778 13.4 28.1778 13.64C27.8045 13.8533 27.3111 14.24 26.6978 14.8L23.4978 30H17.7378L21.9778 10ZM39.0969 30.24C37.5769 30.24 36.3102 29.72 35.2969 28.68C34.2835 27.64 33.7769 26.0133 33.7769 23.8C33.7769 21.8267 34.1635 19.76 34.9369 17.6C35.7369 15.4133 36.9102 13.5733 38.4569 12.08C40.0302 10.56 41.8969 9.8 44.0569 9.8C45.1502 9.8 45.9635 9.98667 46.4969 10.36C47.0302 10.7333 47.2969 11.2267 47.2969 11.84V12.12L47.7369 10H53.4969L50.6169 23.6C50.5102 24 50.4569 24.4267 50.4569 24.88C50.4569 26.0267 51.0035 26.6 52.0969 26.6C52.8435 26.6 53.4835 26.2533 54.0169 25.56C54.5769 24.8667 55.0169 23.96 55.3369 22.84H57.0169C56.0302 25.72 54.8035 27.68 53.3369 28.72C51.8969 29.7333 50.4435 30.24 48.9769 30.24C47.8569 30.24 46.9502 29.9333 46.2569 29.32C45.5902 28.68 45.1902 27.76 45.0569 26.56C44.2835 27.6533 43.4169 28.5467 42.4569 29.24C41.5235 29.9067 40.4035 30.24 39.0969 30.24ZM41.6969 26.36C42.3635 26.36 43.0169 26.0533 43.6569 25.44C44.3235 24.8 44.7769 23.9333 45.0169 22.84L46.9369 13.8C46.9369 13.4533 46.8035 13.12 46.5369 12.8C46.2702 12.4533 45.8569 12.28 45.2969 12.28C44.2302 12.28 43.2702 12.9067 42.4169 14.16C41.5635 15.3867 40.8969 16.88 40.4169 18.64C39.9369 20.3733 39.6969 21.9067 39.6969 23.24C39.6969 24.5733 39.8835 25.4267 40.2569 25.8C40.6569 26.1733 41.1369 26.36 41.6969 26.36ZM59.9116 30.24C58.3649 30.24 57.1516 29.8533 56.2716 29.08C55.4182 28.28 54.9916 27.0933 54.9916 25.52C54.9916 24.88 55.0582 24.24 55.1916 23.6L58.0716 10H63.8316L60.9516 23.6C60.8182 24.2667 60.7516 24.7467 60.7516 25.04C60.7516 25.92 61.2049 26.36 62.1116 26.36C63.3382 26.36 64.4716 25.5867 65.5116 24.04C66.5782 22.4933 67.4316 20.6533 68.0716 18.52C68.7116 16.3867 69.0316 14.5467 69.0316 13C68.9782 13.1333 68.8049 13.24 68.5116 13.32C68.2182 13.3733 67.9649 13.4 67.7516 13.4C67.2982 13.4 66.9382 13.1867 66.6716 12.76C66.4316 12.3333 66.3116 11.8667 66.3116 11.36C66.3116 10.72 66.5116 10.2 66.9116 9.8C67.3382 9.4 67.9649 9.2 68.7916 9.2C69.6716 9.2 70.3116 9.53333 70.7116 10.2C71.1116 10.84 71.3116 11.6667 71.3116 12.68C71.3116 15.08 70.8982 17.6533 70.0716 20.4C69.2449 23.12 67.9782 25.44 66.2716 27.36C64.5649 29.28 62.4449 30.24 59.9116 30.24ZM77.6341 30.24C75.6607 30.24 74.1274 29.7333 73.0341 28.72C71.9407 27.68 71.3941 26.0667 71.3941 23.88C71.3941 22.04 71.7541 20.0133 72.4741 17.8C73.1941 15.5867 74.3674 13.68 75.9941 12.08C77.6207 10.4533 79.6874 9.64 82.1941 9.64C85.1274 9.64 86.5941 10.92 86.5941 13.48C86.5941 14.9733 86.1674 16.3467 85.3141 17.6C84.4607 18.8533 83.3274 19.8667 81.9141 20.64C80.5007 21.3867 78.9941 21.8133 77.3941 21.92C77.3407 22.72 77.3141 23.2533 77.3141 23.52C77.3141 24.8267 77.5407 25.72 77.9941 26.2C78.4474 26.6533 79.1807 26.88 80.1941 26.88C81.6341 26.88 82.8607 26.5467 83.8741 25.88C84.9141 25.2133 86.0474 24.2 87.2741 22.84H88.6341C85.6741 27.7733 82.0074 30.24 77.6341 30.24ZM77.7141 20C78.7007 19.9467 79.6341 19.6 80.5141 18.96C81.4207 18.32 82.1407 17.5067 82.6741 16.52C83.2341 15.5333 83.5141 14.4933 83.5141 13.4C83.5141 12.3067 83.1807 11.76 82.5141 11.76C81.5541 11.76 80.6074 12.6 79.6741 14.28C78.7674 15.96 78.1141 17.8667 77.7141 20ZM91.1456 30.24C89.8656 30.24 88.8256 29.84 88.0256 29.04C87.2523 28.2133 86.8656 26.9867 86.8656 25.36C86.8656 24.6933 86.9723 23.8267 87.1856 22.76L91.4656 2.72L97.3856 1.92L92.7856 23.52C92.679 23.92 92.6256 24.3067 92.6256 24.68C92.6256 25.7467 93.1723 26.28 94.2656 26.28C94.7456 26.28 95.1723 26.2 95.5456 26.04C95.439 27.3733 94.959 28.4133 94.1056 29.16C93.279 29.88 92.2923 30.24 91.1456 30.24ZM111.027 30.68C109.96 30.68 109.027 30.4533 108.227 30C107.454 29.5733 107.067 28.8133 107.067 27.72C107.067 27.0267 107.24 26.2533 107.587 25.4C108.067 25.9333 108.507 26.3067 108.907 26.52C109.334 26.7333 109.787 26.84 110.267 26.84C111.6 26.84 112.587 26.0933 113.227 24.6C113.894 23.1067 114.227 21.4533 114.227 19.64C114.227 16.2533 112.96 14.56 110.427 14.56C109.707 14.56 109.094 14.6 108.587 14.68L105.307 30H99.5469L104.987 4.56L110.907 3.76L109.027 12.64H109.267C110.28 12.64 111.227 12.32 112.107 11.68C112.987 11.0133 113.694 10.1867 114.227 9.2C114.76 8.18667 115.027 7.17333 115.027 6.16C115.027 4.93333 114.587 3.90667 113.707 3.08C112.854 2.25333 111.534 1.84 109.747 1.84C108.12 1.84 106.534 2.21333 104.987 2.96C103.44 3.68 102.174 4.77333 101.187 6.24C100.227 7.70667 99.7469 9.48 99.7469 11.56C99.7469 12.5467 99.8402 13.24 100.027 13.64C100.214 14.0133 100.307 14.2267 100.307 14.28C98.8935 14.28 97.8269 14 97.1069 13.44C96.3869 12.8533 96.0269 11.9067 96.0269 10.6C96.0269 8.78667 96.7069 7.06667 98.0669 5.44C99.4269 3.81333 101.227 2.50667 103.467 1.52C105.707 0.506665 108.067 -2.38419e-06 110.547 -2.38419e-06C112.414 -2.38419e-06 113.987 0.293331 115.267 0.879998C116.547 1.46667 117.494 2.24 118.107 3.2C118.747 4.16 119.067 5.21333 119.067 6.36C119.067 7.58667 118.72 8.77333 118.027 9.92C117.334 11.0667 116.347 12 115.067 12.72C116.667 13.0133 117.854 13.76 118.627 14.96C119.4 16.1333 119.787 17.5333 119.787 19.16C119.787 20.68 119.494 22.3333 118.907 24.12C118.347 25.9067 117.4 27.4533 116.067 28.76C114.76 30.04 113.08 30.68 111.027 30.68ZM125.132 30.24C123.852 30.24 122.812 29.84 122.012 29.04C121.239 28.24 120.852 27.04 120.852 25.44C120.852 24.7733 120.959 23.9067 121.172 22.84L123.892 10H129.652L126.772 23.6C126.692 24 126.652 24.3733 126.652 24.72C126.652 25.8133 127.052 26.36 127.852 26.36C128.599 26.36 129.239 26.0533 129.772 25.44C130.305 24.8 130.732 23.9333 131.052 22.84L133.772 10H139.532L136.652 23.6C136.545 24 136.492 24.4267 136.492 24.88C136.492 25.4133 136.612 25.8 136.852 26.04C137.119 26.2533 137.545 26.36 138.132 26.36C138.879 26.36 139.519 26.04 140.052 25.4C140.612 24.76 141.052 23.9067 141.372 22.84H143.052C142.065 25.72 140.839 27.68 139.372 28.72C137.932 29.7333 136.479 30.24 135.012 30.24C133.865 30.24 132.945 29.92 132.252 29.28C131.585 28.64 131.185 27.6933 131.052 26.44C130.145 27.9067 129.185 28.9067 128.172 29.44C127.185 29.9733 126.172 30.24 125.132 30.24ZM146.167 30.24C144.647 30.24 143.381 29.72 142.367 28.68C141.354 27.64 140.847 26.0133 140.847 23.8C140.847 21.8267 141.234 19.76 142.007 17.6C142.807 15.4133 143.981 13.5733 145.527 12.08C147.101 10.56 148.967 9.8 151.127 9.8C152.221 9.8 153.034 9.98667 153.567 10.36C154.101 10.7333 154.367 11.2267 154.367 11.84V12L156.327 2.8L162.247 2L157.647 23.6C157.541 24 157.487 24.4267 157.487 24.88C157.487 25.4133 157.607 25.8 157.847 26.04C158.114 26.2533 158.541 26.36 159.127 26.36C159.874 26.36 160.514 26.04 161.047 25.4C161.607 24.76 162.047 23.9067 162.367 22.84H164.047C162.421 27.6133 159.741 30 156.007 30C154.914 30 154.021 29.7067 153.327 29.12C152.661 28.5333 152.247 27.68 152.087 26.56C151.394 27.6267 150.554 28.5067 149.567 29.2C148.607 29.8933 147.474 30.24 146.167 30.24ZM148.767 26.36C149.407 26.36 150.047 26.0667 150.687 25.48C151.354 24.8933 151.807 24.08 152.047 23.04V22.84L154.007 13.68C153.767 12.7467 153.221 12.28 152.367 12.28C151.301 12.28 150.341 12.9067 149.487 14.16C148.634 15.3867 147.967 16.88 147.487 18.64C147.007 20.3733 146.767 21.9067 146.767 23.24C146.767 24.5733 146.954 25.4267 147.327 25.8C147.727 26.1733 148.207 26.36 148.767 26.36ZM167.183 30.24C165.663 30.24 164.396 29.72 163.383 28.68C162.369 27.64 161.863 26.0133 161.863 23.8C161.863 21.8267 162.249 19.76 163.023 17.6C163.823 15.4133 164.996 13.5733 166.543 12.08C168.116 10.56 169.983 9.8 172.143 9.8C173.236 9.8 174.049 9.98667 174.583 10.36C175.116 10.7333 175.383 11.2267 175.383 11.84V12L177.343 2.8L183.263 2L178.663 23.6C178.556 24 178.503 24.4267 178.503 24.88C178.503 25.4133 178.623 25.8 178.863 26.04C179.129 26.2533 179.556 26.36 180.143 26.36C180.889 26.36 181.529 26.04 182.063 25.4C182.623 24.76 183.063 23.9067 183.383 22.84H185.063C183.436 27.6133 180.756 30 177.023 30C175.929 30 175.036 29.7067 174.343 29.12C173.676 28.5333 173.263 27.68 173.103 26.56C172.409 27.6267 171.569 28.5067 170.583 29.2C169.623 29.8933 168.489 30.24 167.183 30.24ZM169.783 26.36C170.423 26.36 171.063 26.0667 171.703 25.48C172.369 24.8933 172.823 24.08 173.063 23.04V22.84L175.023 13.68C174.783 12.7467 174.236 12.28 173.383 12.28C172.316 12.28 171.356 12.9067 170.503 14.16C169.649 15.3867 168.983 16.88 168.503 18.64C168.023 20.3733 167.783 21.9067 167.783 23.24C167.783 24.5733 167.969 25.4267 168.343 25.8C168.743 26.1733 169.223 26.36 169.783 26.36ZM189.638 40C188.385 40 187.278 39.5867 186.318 38.76C185.385 37.96 184.918 36.9333 184.918 35.68C184.918 34.5067 185.212 33.5467 185.798 32.8C186.385 32.0533 187.145 31.4667 188.078 31.04C189.012 30.6133 190.265 30.16 191.838 29.68L192.238 27.92C190.878 29.4667 189.252 30.24 187.358 30.24C186.078 30.24 185.038 29.84 184.238 29.04C183.465 28.24 183.078 27.04 183.078 25.44C183.078 24.7733 183.185 23.9067 183.398 22.84L186.118 10H191.878L188.998 23.6C188.918 23.92 188.878 24.2533 188.878 24.6C188.878 25.7733 189.278 26.36 190.078 26.36C190.825 26.36 191.465 26.0533 191.998 25.44C192.532 24.8 192.958 23.9333 193.278 22.84L195.998 10H201.798L196.918 33.2C196.385 35.76 195.438 37.5333 194.078 38.52C192.745 39.5067 191.265 40 189.638 40ZM188.718 36.44C189.198 36.44 189.652 36.1867 190.078 35.68C190.505 35.2 190.838 34.4133 191.078 33.32L191.558 30.96C190.145 31.44 189.052 32 188.278 32.64C187.505 33.28 187.118 34.1067 187.118 35.12C187.118 35.44 187.278 35.7333 187.598 36C187.918 36.2933 188.292 36.44 188.718 36.44Z" fill="black"/>
</svg>
